<svg id="ewrcpck2x361" xmlns="http://www.w3.org/2000/svg" xmlns:xlink="http://www.w3.org/1999/xlink" viewBox="0 0 500 500" shape-rendering="geometricPrecision" text-rendering="geometricPrecision"><g id="ewrcpck2x362" transform="matrix(0.04663300000000 0 0 0.04192400000000 -29.69090000000000 -3.29826000000000)"><g id="ewrcpck2x363" transform="matrix(0.01000000000000 0 0 0.01000000000000 6099.40983026109643 5337.70078685845328)"><path id="ewrcpck2x364" d="M8840,8819C8815,8786,8790,8751,8785,8742C8779,8733,8765,8714,8753,8700C8741,8686,8689,8619,8637,8550C8528,8404,8479,8338,8442,8291C8427,8272,8399,8234,8379,8206C8359,8178,8333,8145,8321,8132C8309,8120,8300,8105,8300,8100C8300,8094,8296,8090,8291,8090C8286,8090,8279,8082,8276,8072C8273,8063,8258,8040,8243,8023C8227,8006,8199,7970,8180,7943C8161,7917,8135,7884,8123,7870C8110,7856,8100,7842,8100,7838C8100,7835,8094,7825,8088,7818C8062,7791,8020,7731,8020,7721C8020,7715,8011,7706,8000,7700C7989,7694,7974,7677,7966,7661C7957,7645,7942,7622,7931,7609C7919,7596,7890,7558,7865,7525C7840,7492,7813,7456,7804,7445C7796,7434,7766,7395,7738,7358C7686,7288,7672,7280,7648,7304C7640,7311,7620,7325,7602,7334C7584,7343,7570,7355,7570,7360C7570,7366,7566,7370,7560,7370C7555,7370,7529,7383,7503,7399C7422,7448,7349,7488,7250,7536C7099,7610,7058,7628,7001,7644C6972,7653,6942,7664,6936,7668C6930,7673,6896,7685,6860,7694C6824,7703,6786,7715,6775,7720C6702,7752,6505,7792,6315,7815C6082,7843,5607,7830,5430,7792C5405,7786,5351,7776,5310,7769C5269,7762,5230,7753,5225,7749C5219,7744,5195,7738,5172,7734C5149,7730,5130,7724,5130,7720C5130,7716,5104,7707,5073,7700C5041,7694,4997,7680,4975,7671C4953,7661,4915,7647,4890,7640C4865,7632,4836,7620,4825,7613C4814,7606,4798,7600,4788,7600C4778,7600,4770,7596,4770,7590C4770,7585,4763,7580,4755,7580C4747,7580,4705,7562,4663,7540C4620,7518,4579,7500,4573,7500C4566,7500,4560,7496,4560,7492C4560,7487,4539,7473,4513,7460C4486,7448,4452,7427,4435,7415C4419,7403,4395,7390,4383,7386C4370,7382,4354,7373,4348,7366C4341,7360,4319,7345,4300,7333C4281,7321,4256,7303,4245,7293C4234,7283,4207,7263,4185,7249C4152,7228,4053,7148,3980,7085C3944,7053,3741,6847,3698,6798C3633,6724,3540,6602,3540,6591C3540,6586,3536,6580,3531,6578C3519,6574,3410,6414,3410,6400C3410,6394,3401,6380,3391,6369C3380,6357,3350,6305,3323,6251C3297,6198,3273,6153,3270,6150C3254,6134,3184,5972,3164,5905C3154,5872,3142,5843,3139,5840C3135,5837,3129,5818,3125,5797C3121,5777,3114,5760,3109,5760C3104,5760,3100,5742,3100,5720C3100,5698,3096,5680,3091,5680C3086,5680,3079,5663,3075,5643C3071,5622,3065,5601,3060,5595C3056,5590,3045,5542,3035,5490C3026,5438,3014,5386,3010,5375C2989,5326,2956,4967,2957,4795C2958,4614,2991,4260,3013,4210C3016,4202,3027,4152,3036,4100C3045,4048,3056,4001,3060,3995C3065,3990,3071,3968,3075,3948C3079,3927,3086,3910,3091,3910C3096,3910,3100,3895,3100,3876C3100,3857,3105,3838,3110,3835C3116,3832,3120,3821,3120,3812C3120,3803,3126,3784,3133,3770C3140,3756,3154,3720,3164,3690C3173,3660,3187,3622,3194,3605C3227,3533,3265,3455,3271,3450C3274,3447,3284,3425,3294,3400C3304,3375,3315,3353,3319,3350C3323,3347,3338,3320,3353,3290C3391,3210,3508,3032,3557,2976C3563,2969,3579,2947,3592,2929C3620,2888,3654,2847,3698,2802C3715,2783,3730,2765,3730,2761C3730,2757,3758,2726,3793,2693C3827,2659,3862,2624,3871,2613C3884,2598,3965,2523,4068,2433C4082,2420,4096,2410,4099,2410C4102,2410,4123,2394,4145,2375C4167,2356,4189,2340,4193,2340C4197,2340,4211,2331,4223,2319C4251,2292,4376,2210,4389,2210C4394,2210,4400,2206,4402,2201C4406,2191,4584,2090,4598,2090C4604,2090,4615,2084,4622,2077C4636,2064,4744,2010,4757,2010C4762,2010,4782,2001,4802,1990C4822,1979,4859,1965,4884,1959C4909,1953,4930,1944,4930,1939C4930,1934,4936,1930,4943,1930C4955,1930,5053,1900,5180,1858C5218,1845,5358,1817,5490,1795C5742,1752,6388,1762,6505,1810C6516,1814,6557,1823,6595,1829C6679,1842,6824,1882,6828,1892C6830,1897,6839,1900,6847,1900C6867,1900,6973,1932,6980,1940C6983,1944,7010,1954,7040,1964C7070,1974,7103,1988,7114,1996C7125,2004,7140,2010,7148,2010C7161,2010,7270,2059,7280,2070C7283,2073,7324,2095,7372,2120C7421,2145,7460,2168,7460,2173C7460,2177,7466,2180,7474,2180C7482,2180,7495,2186,7502,2193C7509,2199,7531,2214,7550,2224C7569,2235,7587,2246,7590,2249C7593,2252,7619,2271,7647,2290C7676,2309,7700,2328,7700,2333C7700,2337,7706,2340,7713,2340C7719,2340,7739,2353,7757,2368C7774,2383,7803,2406,7820,2420C7884,2471,7914,2498,8038,2620C8157,2736,8243,2831,8279,2883C8287,2895,8299,2910,8306,2915C8312,2921,8341,2959,8369,3000C8397,3041,8427,3084,8435,3095C8479,3151,8549,3270,8582,3340C8593,3365,8606,3387,8609,3390C8620,3399,8650,3462,8650,3476C8650,3484,8654,3490,8659,3490C8664,3490,8671,3503,8675,3520C8679,3536,8685,3550,8689,3550C8693,3550,8705,3577,8715,3610C8725,3643,8737,3670,8742,3670C8746,3670,8750,3680,8750,3693C8751,3705,8757,3726,8765,3740C8773,3754,8779,3777,8780,3793C8780,3808,8784,3820,8789,3820C8794,3820,8801,3837,8805,3858C8809,3878,8815,3900,8820,3905C8824,3911,8835,3949,8844,3990C8854,4031,8865,4072,8869,4080C8873,4088,8885,4147,8894,4210C8904,4273,8915,4334,8920,4345C8924,4356,8935,4460,8944,4576C8960,4773,8959,4803,8943,5016C8934,5142,8923,5247,8920,5250C8916,5253,8905,5312,8895,5383C8885,5453,8874,5510,8870,5510C8866,5510,8855,5551,8845,5600C8835,5650,8824,5693,8819,5696C8814,5699,8810,5708,8810,5717C8810,5725,8804,5746,8797,5763C8789,5781,8775,5820,8765,5850C8756,5880,8739,5924,8729,5947C8719,5971,8710,5993,8710,5996C8710,6008,8665,6095,8658,6098C8653,6100,8650,6107,8650,6114C8650,6128,8621,6192,8611,6200C8607,6203,8596,6225,8585,6250C8574,6275,8560,6301,8553,6308C8546,6315,8540,6326,8540,6331C8540,6337,8523,6367,8503,6398C8482,6429,8461,6462,8455,6471C8386,6579,8316,6675,8288,6701C8264,6723,8265,6731,8298,6772C8313,6791,8334,6819,8345,6834C8356,6849,8373,6871,8383,6882C8392,6894,8400,6906,8400,6909C8400,6913,8412,6930,8428,6947C8443,6964,8471,7000,8490,7027C8533,7086,8528,7080,8595,7165C8625,7204,8650,7240,8650,7245C8650,7251,8659,7261,8669,7267C8680,7274,8698,7297,8711,7320C8723,7342,8737,7360,8741,7360C8745,7360,8759,7377,8771,7398C8784,7418,8805,7446,8817,7460C8830,7474,8840,7488,8840,7492C8840,7495,8846,7505,8853,7512C8868,7528,8906,7577,8991,7690C9026,7737,9057,7777,9060,7780C9070,7790,9148,7896,9166,7925C9177,7941,9192,7962,9200,7972C9208,7981,9224,8001,9235,8015C9246,8030,9261,8048,9268,8055C9274,8063,9280,8073,9280,8078C9280,8084,9284,8090,9288,8092C9292,8094,9317,8123,9343,8157C9390,8218,9399,8243,9380,8255C9375,8258,9350,8293,9325,8331C9279,8403,9269,8417,9238,8451C9228,8461,9220,8472,9220,8475C9220,8483,9140,8599,9117,8625C9107,8636,9090,8660,9079,8678C9067,8695,9054,8710,9049,8710C9044,8710,9036,8718,9032,8729C9028,8739,9012,8764,8995,8784C8979,8805,8954,8835,8942,8851C8929,8867,8911,8880,8902,8880C8892,8880,8865,8852,8840,8819ZM6183,7009C6250,7003,6323,6994,6345,6988C6367,6983,6423,6970,6470,6960C6517,6949,6564,6937,6575,6931C6609,6915,6685,6890,6698,6890C6705,6890,6739,6877,6774,6861C6808,6844,6849,6828,6863,6825C6878,6821,6892,6814,6895,6810C6898,6805,6921,6792,6948,6779C6974,6767,7008,6747,7025,6736C7041,6724,7071,6706,7092,6695C7130,6674,7265,6579,7310,6541C7445,6428,7597,6273,7649,6196C7657,6184,7667,6173,7671,6170C7678,6165,7726,6098,7767,6035C7848,5912,7970,5672,7970,5635C7970,5627,7974,5620,7979,5620C7984,5620,7992,5605,7995,5588C7999,5570,8006,5551,8009,5545C8013,5540,8025,5499,8036,5455C8046,5411,8057,5373,8061,5370C8065,5367,8075,5316,8085,5255C8094,5195,8107,5134,8113,5121C8129,5088,8130,4513,8114,4479C8108,4466,8095,4406,8085,4346C8076,4286,8065,4230,8060,4221C8050,4202,8030,4128,8023,4083C8020,4065,8014,4050,8009,4050C8004,4050,8000,4042,8000,4033C8000,4023,7994,4003,7986,3989C7979,3974,7964,3938,7955,3909C7945,3879,7931,3849,7923,3842C7916,3835,7910,3825,7910,3820C7910,3808,7819,3641,7782,3584C7746,3529,7669,3418,7656,3403C7650,3397,7632,3375,7615,3355C7599,3335,7568,3302,7548,3283C7528,3263,7513,3243,7516,3238C7519,3234,7517,3230,7511,3230C7506,3230,7469,3200,7430,3162C7348,3086,7322,3063,7265,3020C7243,3004,7216,2983,7205,2974C7194,2965,7175,2953,7163,2947C7150,2942,7140,2934,7140,2930C7140,2926,7122,2915,7100,2905C7078,2895,7060,2884,7060,2881C7060,2877,7030,2859,6993,2840C6955,2821,6923,2802,6920,2799C6917,2796,6899,2788,6880,2780C6821,2758,6756,2730,6738,2720C6728,2714,6714,2710,6706,2710C6699,2710,6679,2703,6664,2695C6648,2687,6625,2680,6613,2680C6601,2680,6590,2676,6588,2670C6587,2665,6549,2653,6505,2645C6461,2636,6416,2625,6405,2619C6366,2601,6124,2580,5951,2580C5785,2580,5511,2604,5500,2620C5497,2624,5453,2635,5403,2645C5352,2654,5310,2666,5310,2671C5310,2676,5302,2680,5293,2680C5283,2680,5262,2687,5246,2695C5231,2703,5211,2710,5204,2710C5196,2710,5182,2714,5172,2719C5120,2744,5081,2761,5044,2774C5021,2782,4985,2799,4964,2812C4942,2825,4908,2844,4888,2855C4867,2866,4850,2877,4850,2881C4850,2884,4832,2895,4810,2905C4788,2915,4770,2926,4770,2930C4770,2934,4762,2940,4753,2944C4735,2949,4700,2970,4690,2980C4687,2983,4645,3019,4595,3060C4467,3165,4409,3222,4316,3330C4215,3448,4178,3497,4157,3535C4149,3552,4132,3575,4121,3587C4109,3599,4100,3616,4100,3623C4100,3631,4094,3642,4087,3648C4080,3654,4050,3708,4021,3767C3992,3826,3962,3887,3954,3902C3946,3916,3940,3935,3940,3944C3940,3953,3936,3960,3930,3960C3925,3960,3920,3967,3920,3975C3920,3984,3908,4023,3894,4063C3879,4102,3860,4169,3851,4210C3842,4251,3832,4290,3829,4295C3820,4308,3803,4421,3790,4542C3768,4755,3786,5156,3824,5280C3832,5305,3843,5350,3849,5380C3862,5444,3911,5592,3943,5665C3979,5747,4098,5978,4110,5990C4113,5993,4131,6020,4150,6050C4169,6080,4187,6107,4190,6110C4193,6113,4218,6144,4245,6180C4286,6235,4346,6303,4421,6379C4480,6440,4596,6541,4655,6584C4677,6600,4697,6617,4698,6622C4700,6626,4708,6630,4715,6630C4722,6630,4730,6633,4732,6638C4737,6649,4912,6760,4925,6760C4928,6760,4951,6773,4977,6789C5004,6805,5044,6824,5068,6831C5091,6838,5110,6846,5110,6850C5110,6853,5136,6864,5168,6874C5199,6884,5256,6904,5295,6918C5333,6932,5401,6952,5445,6961C5489,6971,5545,6984,5570,6989C5689,7017,5984,7027,6183,7009Z" fill="rgb(195,12,21)" stroke="none" stroke-width="1"/><path id="ewrcpck2x365" d="M5540,6481C5428,6466,5235,6437,5223,6434C5216,6432,5210,6426,5210,6420C5210,6405,5237,6397,5258,6406C5278,6415,5287,6416,5438,6426C5555,6433,5633,6426,5810,6390C5959,6360,6077,6303,6193,6205C6467,5975,6406,5626,6044,5343C6010,5317,5967,5286,5949,5275C5931,5264,5895,5243,5870,5227C5845,5212,5800,5186,5770,5169C5689,5124,5611,5081,5560,5054C5430,4983,5246,4868,5184,4820C5163,4803,5130,4777,5111,4762C5060,4722,4930,4587,4930,4574C4930,4568,4921,4555,4910,4545C4881,4519,4816,4404,4778,4314L4745,4235L4745,4035C4745,3867,4748,3828,4763,3793C4772,3769,4787,3731,4796,3708C4813,3662,4856,3589,4905,3525C5047,3338,5304,3202,5635,3140C5827,3103,5849,3102,6130,3101C6374,3101,6444,3105,6580,3125C6747,3151,6760,3154,6760,3167C6760,3185,6733,3195,6717,3182C6711,3177,6693,3174,6678,3177C6664,3179,6649,3176,6645,3170C6637,3157,6347,3156,6288,3169C6058,3218,5930,3264,5837,3330C5754,3390,5688,3463,5657,3530C5630,3589,5627,3604,5628,3690C5628,3771,5633,3796,5659,3863C5698,3962,5750,4037,5836,4122C5917,4202,5944,4225,6001,4265C6024,4282,6063,4310,6087,4328C6111,4345,6133,4360,6136,4360C6139,4360,6160,4373,6183,4388C6278,4453,6469,4570,6480,4570C6484,4570,6495,4579,6505,4590C6515,4601,6527,4610,6532,4610C6545,4610,6664,4686,6765,4759C6940,4886,7061,4997,7147,5114C7187,5168,7258,5323,7265,5373C7269,5399,7276,5423,7281,5426C7293,5433,7293,5687,7281,5695C7275,5698,7268,5722,7264,5748C7250,5848,7158,6006,7056,6103C6984,6172,6886,6250,6871,6250C6865,6250,6860,6253,6860,6258C6860,6266,6847,6274,6764,6313C6732,6328,6696,6346,6686,6351C6645,6374,6451,6431,6384,6440C6345,6445,6280,6457,6239,6466C6181,6479,6104,6483,5880,6485C5723,6487,5570,6485,5540,6481Z" fill="rgb(195,12,21)" stroke="none" stroke-width="1"/><path id="ewrcpck2x366" d="M5198,6261C5120,6234,5044,6184,4988,6121C4944,6072,4933,6056,4889,5970C4837,5868,4848,5675,4914,5557C5101,5224,5553,5206,5764,5524C5863,5673,5866,5894,5772,6045C5739,6097,5651,6190,5634,6190C5626,6190,5620,6193,5620,6198C5620,6205,5563,6236,5505,6261C5489,6267,5426,6275,5365,6276C5276,6279,5244,6276,5198,6261Z" fill="rgb(195,12,21)" stroke="none" stroke-width="1"/><path id="ewrcpck2x367" d="M6488,4230C6441,4222,6419,4213,6346,4171C6250,4116,6161,4010,6123,3904C6099,3836,6098,3654,6122,3588C6166,3469,6265,3354,6365,3307C6467,3259,6483,3255,6595,3255C6698,3255,6710,3258,6785,3290C6937,3355,7055,3506,7079,3667C7092,3754,7078,3875,7048,3935C7007,4019,6996,4035,6936,4094C6814,4215,6666,4260,6488,4230Z" fill="rgb(195,12,21)" stroke="none" stroke-width="1"/></g><g id="ewrcpck2x368" transform="matrix(19.77760000000000 0 0 21.99910000000000 -89371.10000000002037 -131269)"><path id="ewrcpck2x369" d="M4818.810000,5976.157000C4821.316000,5975.827000,4824.073000,5976.131000,4826.593000,5976.193000C4831.930000,5976.323000,4837.224000,5976.434000,4842.540000,5976.948000C4849.372000,5977.610000,4856.257000,5978.382000,4863.018000,5979.602000C4868.492000,5980.590000,4873.908000,5981.997000,4879.285000,5983.409000C4883.877000,5984.617000,4888.522000,5985.808000,4893,5987.402000C4895.081000,5988.142000,4897.013000,5989.189000,4899.060000,5990.008000C4900.955000,5990.766000,4902.914000,5991.249000,4904.802000,5992.041000C4910.892000,5994.597000,4917.045000,5997.312000,4922.855000,6000.455000C4926.067000,6002.191000,4929.157000,6004.140000,4932.296000,6005.984000C4935.464000,6007.844000,4938.676000,6009.579000,4941.738000,6011.620000C4943.553000,6012.831000,4945.257000,6014.194000,4947.032000,6015.463000C4951.680000,6018.786000,4956.382000,6022.163000,4960.748000,6025.851000C4962.515000,6027.345000,4964.137000,6028.984000,4965.851000,6030.534000C4969.444000,6033.784000,4972.929000,6037.091000,4976.314000,6040.560000C4979.462000,6043.787000,4982.652000,6046.979000,4985.609000,6050.384000C4993.830000,6059.850000,5001.122000,6070.175000,5007.406000,6081.005000C5008.431000,6082.769000,5009.583000,6084.453000,5010.579000,6086.235000C5013.447000,6091.373000,5016.309000,6096.674000,5018.553000,6102.120000C5018.731000,6102.554000,5018.773000,6103.031000,5018.949000,6103.460000C5019.203000,6104.078000,5019.789000,6104.447000,5020.051000,6105.054000C5020.269000,6105.559000,5020.266000,6106.134000,5020.485000,6106.649000C5021.139000,6108.191000,5021.955000,6109.649000,5022.499000,6111.242000C5022.739000,6111.948000,5022.753000,6112.724000,5023.013000,6113.411000C5023.556000,6114.846000,5024.437000,6116.171000,5024.999000,6117.621000C5026.053000,6120.343000,5026.721000,6123.142000,5027.604000,6125.914000C5028.192000,6127.760000,5028.968000,6129.526000,5029.489000,6131.401000C5030.419000,6134.748000,5031.086000,6138.154000,5031.839000,6141.543000C5033.286000,6148.060000,5034.537000,6154.497000,5035.331000,6161.128000C5035.700000,6164.208000,5036.251000,6167.282000,5036.464000,6170.377000C5036.974000,6177.826000,5036.979000,6185.293000,5036.979000,6192.769000C5036.979000,6198.342000,5036.843000,6203.928000,5036.464000,6209.482000C5036.288000,6212.042000,5035.908000,6214.589000,5035.594000,6217.137000C5035.209000,6220.265000,5034.884000,6223.399000,5034.401000,6226.515000C5033.825000,6230.227000,5032.969000,6233.885000,5032.158000,6237.551000C5030.383000,6245.590000,5028.305000,6253.560000,5025.602000,6261.345000C5023.868000,6266.343000,5021.561000,6271.158000,5019.491000,6276.017000C5019.018000,6277.127000,5018.784000,6278.297000,5018.297000,6279.398000C5016.560000,6283.331000,5014.497000,6287.122000,5012.661000,6291.009000C5011.530000,6293.402000,5010.518000,6295.918000,5009.202000,6298.217000C5008.736000,6299.030000,5008.022000,6299.653000,5007.537000,6300.450000C5007.188000,6301.024000,5007.084000,6301.741000,5006.831000,6302.364000C5006.304000,6303.657000,5005.707000,6304.950000,5005.067000,6306.192000C5004.590000,6307.115000,5004.001000,6307.960000,5003.509000,6308.871000C5002.772000,6310.232000,5002.164000,6311.657000,5001.427000,6313.017000C4999.968000,6315.715000,4998.385000,6318.392000,4996.854000,6321.055000C4996.380000,6321.880000,4995.794000,6322.647000,4995.343000,6323.479000C4994.859000,6324.371000,4994.499000,6325.293000,4993.957000,6326.158000C4993.554000,6326.799000,4993.006000,6327.655000,4992.261000,6327.920000C4991.309000,6328.260000,4990.353000,6327.184000,4989.811000,6326.541000C4988.166000,6324.593000,4986.761000,6322.450000,4985.141000,6320.481000C4983.868000,6318.933000,4982.562000,6317.419000,4981.345000,6315.824000C4980.437000,6314.634000,4979.642000,6313.356000,4978.708000,6312.188000C4975.067000,6307.629000,4971.302000,6303.165000,4967.911000,6298.408000C4966.642000,6296.629000,4965.035000,6295.199000,4963.912000,6293.305000C4963.464000,6292.548000,4962.837000,6291.705000,4963.226000,6290.817000C4963.819000,6289.472000,4964.696000,6288.283000,4965.488000,6287.054000C4967.118000,6284.524000,4968.858000,6282.027000,4970.325000,6279.398000C4971.312000,6277.631000,4972.174000,6275.798000,4973.178000,6274.041000C4973.842000,6272.875000,4974.665000,6271.787000,4975.276000,6270.595000C4975.620000,6269.925000,4975.825000,6269.179000,4976.141000,6268.490000C4977.659000,6265.184000,4979.134000,6261.919000,4980.485000,6258.538000C4981.389000,6256.274000,4982.425000,6254.068000,4983.263000,6251.777000C4985.675000,6245.181000,4987.635000,6238.455000,4989.255000,6231.618000C4989.846000,6229.123000,4990.631000,6226.609000,4991.086000,6224.091000C4991.546000,6221.537000,4991.814000,6218.942000,4992.151000,6216.372000C4992.685000,6212.312000,4993.252000,6208.270000,4993.531000,6204.187000C4993.850000,6199.531000,4993.730000,6194.814000,4993.728000,6190.153000C4993.727000,6185.358000,4993.731000,6180.577000,4993.403000,6175.800000C4993.200000,6172.832000,4992.730000,6169.883000,4992.343000,6166.933000C4991.926000,6163.766000,4991.599000,6160.570000,4991.010000,6157.428000C4990.673000,6155.634000,4990.097000,6153.853000,4989.687000,6152.069000C4988.638000,6147.500000,4987.527000,6142.896000,4986.135000,6138.417000C4985.936000,6137.774000,4985.605000,6137.200000,4985.394000,6136.568000C4985.136000,6135.794000,4985.027000,6134.977000,4984.754000,6134.208000C4984.571000,6133.696000,4984.261000,6133.248000,4984.077000,6132.740000C4983.439000,6130.995000,4983.035000,6129.173000,4982.345000,6127.445000C4981.886000,6126.298000,4981.291000,6125.202000,4980.806000,6124.064000C4979.814000,6121.741000,4979.008000,6119.346000,4977.951000,6117.047000C4976.085000,6112.982000,4973.879000,6109.028000,4971.711000,6105.118000C4971.118000,6104.048000,4970.686000,6102.842000,4970.066000,6101.801000C4969.542000,6100.923000,4968.730000,6100.144000,4968.175000,6099.249000C4967.725000,6098.522000,4967.263000,6097.785000,4966.889000,6097.016000C4966.724000,6096.680000,4966.667000,6096.237000,4966.453000,6095.934000C4966.076000,6095.401000,4965.564000,6094.942000,4965.176000,6094.401000C4963.537000,6092.108000,4962.045000,6089.718000,4960.372000,6087.448000C4956.423000,6082.090000,4952.200000,6076.943000,4947.664000,6072.074000C4941.444000,6065.396000,4934.700000,6059.299000,4927.576000,6053.609000C4924.542000,6051.186000,4921.477000,6048.762000,4918.262000,6046.579000C4915.057000,6044.403000,4911.646000,6042.518000,4908.311000,6040.560000C4907.586000,6040.134000,4906.932000,6039.600000,4906.205000,6039.184000C4904.541000,6038.231000,4902.783000,6037.445000,4901.102000,6036.522000C4900.440000,6036.158000,4899.855000,6035.626000,4899.188000,6035.289000C4898.865000,6035.126000,4898.475000,6035.159000,4898.168000,6034.999000C4897.857000,6034.836000,4897.840000,6034.440000,4897.527000,6034.281000C4896.995000,6034.011000,4896.307000,6034.055000,4895.743000,6033.782000C4894.342000,6033.101000,4892.929000,6032.434000,4891.533000,6031.741000C4890.911000,6031.432000,4890.324000,6031.004000,4889.682000,6030.749000C4888.705000,6030.360000,4887.672000,6030.137000,4886.685000,6029.776000C4885.418000,6029.313000,4884.191000,6028.745000,4882.921000,6028.292000C4882.391000,6028.104000,4881.769000,6028.074000,4881.262000,6027.865000C4880.820000,6027.682000,4880.533000,6027.258000,4880.050000,6027.065000C4878.622000,6026.494000,4877.104000,6026.207000,4875.649000,6025.718000C4874.990000,6025.496000,4874.395000,6025.127000,4873.735000,6024.923000C4872.772000,6024.627000,4871.755000,6024.528000,4870.801000,6024.207000C4869.974000,6023.929000,4869.234000,6023.514000,4868.377000,6023.282000C4867.010000,6022.912000,4865.624000,6022.574000,4864.229000,6022.331000C4863.563000,6022.216000,4862.840000,6022.225000,4862.188000,6022.067000C4861.550000,6021.911000,4861.056000,6021.452000,4860.402000,6021.289000C4859.291000,6021.009000,4858.143000,6020.954000,4857.021000,6020.733000C4856.286000,6020.589000,4855.641000,6020.223000,4854.916000,6020.070000C4853.208000,6019.711000,4851.468000,6019.602000,4849.749000,6019.313000C4848.427000,6019.089000,4847.206000,6018.610000,4845.858000,6018.442000C4841.601000,6017.913000,4837.313000,6017.844000,4833.035000,6017.656000C4827.311000,6017.406000,4821.544000,6017.390000,4815.812000,6017.531000C4809.359000,6017.688000,4802.828000,6017.663000,4796.419000,6018.506000C4795.208000,6018.665000,4794.210000,6019.194000,4793.037000,6019.406000C4791.472000,6019.688000,4789.869000,6019.705000,4788.317000,6020.075000C4787.761000,6020.208000,4787.410000,6020.622000,4786.850000,6020.733000C4785.978000,6020.906000,4785.055000,6020.843000,4784.171000,6021.003000C4782.578000,6021.291000,4781.027000,6021.785000,4779.450000,6022.146000C4777.630000,6022.564000,4775.764000,6022.863000,4773.964000,6023.363000C4773.163000,6023.586000,4772.618000,6024.120000,4771.858000,6024.355000C4771.005000,6024.619000,4770.099000,6024.679000,4769.243000,6024.953000C4768.604000,6025.158000,4768.031000,6025.517000,4767.393000,6025.739000C4765.795000,6026.293000,4764.134000,6026.648000,4762.545000,6027.231000C4760.859000,6027.849000,4759.242000,6028.663000,4757.569000,6029.320000C4756.179000,6029.866000,4754.653000,6030.094000,4753.295000,6030.700000C4752.892000,6030.880000,4752.657000,6031.246000,4752.274000,6031.449000C4751.713000,6031.747000,4751.061000,6031.798000,4750.488000,6032.069000C4749.824000,6032.383000,4749.247000,6032.882000,4748.574000,6033.208000C4747.942000,6033.513000,4747.270000,6033.805000,4746.597000,6034.007000C4746.238000,6034.116000,4745.783000,6034.111000,4745.452000,6034.281000C4745.073000,6034.477000,4744.975000,6034.962000,4744.555000,6035.178000C4740.934000,6037.034000,4737.319000,6038.982000,4733.775000,6041.017000C4732.644000,6041.665000,4731.430000,6042.185000,4730.330000,6042.885000C4729.343000,6043.513000,4728.436000,6044.288000,4727.459000,6044.940000C4726.588000,6045.519000,4725.636000,6045.991000,4724.780000,6046.585000C4718.779000,6050.742000,4712.908000,6055.258000,4707.492000,6060.155000C4704.719000,6062.664000,4702.098000,6065.347000,4699.454000,6067.991000C4697.163000,6070.283000,4694.814000,6072.542000,4692.639000,6074.944000C4690.807000,6076.969000,4689.143000,6079.142000,4687.422000,6081.260000C4686.550000,6082.333000,4685.569000,6083.346000,4684.740000,6084.449000C4684.428000,6084.864000,4684.275000,6085.367000,4683.959000,6085.789000C4683.209000,6086.792000,4682.354000,6087.706000,4681.619000,6088.724000C4680.736000,6089.947000,4680.006000,6091.273000,4679.112000,6092.487000C4678.760000,6092.965000,4678.217000,6093.322000,4677.893000,6093.777000C4677.711000,6094.033000,4677.787000,6094.383000,4677.629000,6094.652000C4677.466000,6094.929000,4677.130000,6095.014000,4676.958000,6095.295000C4676.627000,6095.834000,4676.533000,6096.476000,4676.189000,6097.016000C4675.816000,6097.604000,4675.315000,6098.090000,4674.939000,6098.675000C4674.693000,6099.058000,4674.632000,6099.502000,4674.399000,6099.887000C4674.023000,6100.510000,4673.505000,6101.053000,4673.111000,6101.673000C4672.417000,6102.770000,4671.900000,6103.984000,4671.268000,6105.118000C4670.847000,6105.871000,4670.288000,6106.541000,4669.875000,6107.287000C4669.072000,6108.735000,4668.543000,6110.335000,4667.798000,6111.817000C4667.261000,6112.883000,4666.579000,6113.873000,4666.045000,6114.942000C4663.443000,6120.145000,4661.359000,6125.610000,4659.412000,6131.081000C4658.847000,6132.670000,4658.108000,6134.201000,4657.586000,6135.802000C4657.073000,6137.375000,4656.819000,6139.006000,4656.349000,6140.587000C4656.158000,6141.225000,4655.765000,6141.705000,4655.546000,6142.309000C4655.242000,6143.147000,4655.161000,6144.063000,4654.935000,6144.924000C4654.773000,6145.540000,4654.469000,6146.097000,4654.313000,6146.710000C4653.477000,6150.007000,4652.991000,6153.392000,4652.325000,6156.726000C4651.452000,6161.091000,4650.456000,6165.428000,4650.026000,6169.867000C4649.364000,6176.716000,4649.441000,6183.652000,4649.441000,6190.536000C4649.441000,6197.674000,4649.339000,6204.868000,4650.026000,6211.970000C4650.497000,6216.841000,4651.624000,6221.595000,4652.567000,6226.387000C4653.126000,6229.233000,4653.537000,6232.122000,4654.249000,6234.936000C4654.427000,6235.637000,4654.767000,6236.279000,4654.964000,6236.977000C4655.213000,6237.859000,4655.294000,6238.785000,4655.588000,6239.656000C4655.801000,6240.286000,4656.130000,6240.862000,4656.329000,6241.506000C4656.811000,6243.064000,4657.084000,6244.678000,4657.607000,6246.226000C4658.132000,6247.782000,4658.846000,6249.284000,4659.429000,6250.820000C4660.397000,6253.361000,4661.173000,6255.964000,4662.227000,6258.475000C4663.784000,6262.187000,4665.616000,6265.784000,4667.415000,6269.383000C4667.976000,6270.506000,4668.587000,6271.617000,4669.098000,6272.764000C4669.368000,6273.369000,4669.507000,6274.106000,4669.819000,6274.676000C4670.087000,6275.164000,4670.544000,6275.586000,4670.837000,6276.082000C4671.613000,6277.392000,4672.221000,6278.793000,4673.009000,6280.100000C4673.546000,6280.990000,4674.250000,6281.768000,4674.804000,6282.652000C4675.389000,6283.589000,4675.968000,6284.539000,4676.473000,6285.522000C4676.656000,6285.879000,4676.729000,6286.330000,4676.935000,6286.664000C4677.104000,6286.937000,4677.463000,6286.885000,4677.647000,6287.132000C4677.829000,6287.377000,4677.892000,6287.740000,4678.048000,6288.010000C4678.427000,6288.675000,4678.878000,6289.303000,4679.323000,6289.924000C4682.325000,6294.125000,4685.425000,6298.274000,4688.732000,6302.236000C4695.955000,6310.889000,4704.056000,6319.045000,4712.723000,6326.258000C4714.390000,6327.646000,4716.142000,6329.032000,4717.890000,6330.312000C4718.255000,6330.579000,4718.678000,6330.730000,4719.038000,6331C4719.639000,6331.450000,4720.151000,6332.008000,4720.761000,6332.446000C4721.245000,6332.795000,4721.811000,6332.916000,4722.292000,6333.252000C4723.688000,6334.229000,4724.959000,6335.380000,4726.375000,6336.344000C4728.849000,6338.027000,4731.468000,6339.434000,4734.030000,6340.971000C4734.837000,6341.455000,4735.581000,6342.055000,4736.390000,6342.524000C4736.712000,6342.709000,4737.095000,6342.695000,4737.408000,6342.877000C4737.811000,6343.112000,4738.148000,6343.469000,4738.559000,6343.711000C4739.906000,6344.501000,4741.332000,6345.147000,4742.705000,6345.890000C4743.597000,6346.372000,4744.412000,6347.008000,4745.321000,6347.448000C4746.281000,6347.913000,4747.343000,6348.096000,4748.319000,6348.513000C4748.806000,6348.721000,4749.086000,6349.199000,4749.532000,6349.387000C4750.152000,6349.646000,4750.821000,6349.794000,4751.445000,6350.072000C4752.753000,6350.654000,4753.999000,6351.363000,4755.336000,6351.879000C4755.961000,6352.120000,4756.632000,6352.142000,4757.250000,6352.405000C4758.646000,6352.997000,4759.970000,6353.726000,4761.397000,6354.264000C4762.076000,6354.520000,4762.929000,6354.586000,4763.564000,6354.892000C4763.905000,6355.057000,4763.965000,6355.476000,4764.331000,6355.621000C4764.752000,6355.788000,4765.289000,6355.751000,4765.734000,6355.849000C4766.704000,6356.062000,4767.655000,6356.348000,4768.605000,6356.633000C4771.595000,6357.530000,4774.569000,6358.683000,4777.599000,6359.402000C4779.437000,6359.837000,4781.312000,6360.100000,4783.150000,6360.535000C4784.083000,6360.756000,4784.966000,6361.134000,4785.893000,6361.356000C4787.262000,6361.686000,4788.666000,6361.798000,4790.040000,6362.100000C4790.946000,6362.300000,4791.797000,6362.605000,4792.719000,6362.749000C4796.650000,6363.358000,4800.630000,6363.667000,4804.584000,6364.061000C4812.125000,6364.816000,4819.640000,6365.338000,4827.231000,6365.006000C4831.582000,6364.816000,4835.907000,6364.304000,4840.244000,6363.870000C4843.771000,6363.518000,4847.331000,6363.286000,4850.833000,6362.706000C4852.245000,6362.473000,4853.579000,6361.939000,4854.980000,6361.641000C4858.701000,6360.848000,4862.455000,6360.176000,4866.144000,6359.243000C4867.830000,6358.816000,4869.450000,6358.093000,4871.119000,6357.590000C4873.542000,6356.860000,4876.080000,6356.390000,4878.456000,6355.522000C4878.851000,6355.378000,4879.054000,6355.025000,4879.415000,6354.875000C4880.247000,6354.529000,4881.230000,6354.418000,4882.092000,6354.074000C4883.377000,6353.561000,4884.588000,6352.912000,4885.855000,6352.369000C4886.591000,6352.054000,4887.403000,6351.963000,4888.152000,6351.648000C4890.319000,6350.739000,4892.397000,6349.637000,4894.531000,6348.657000C4895.729000,6348.107000,4897.068000,6347.762000,4898.231000,6347.171000C4898.599000,6346.984000,4898.714000,6346.577000,4899.062000,6346.401000C4899.502000,6346.177000,4899.974000,6346.218000,4900.400000,6345.902000C4901.406000,6345.153000,4902.964000,6343.849000,4904.291000,6344.551000C4905.898000,6345.402000,4906.929000,6347.709000,4907.867000,6349.187000C4908.415000,6350.050000,4908.972000,6350.951000,4909.625000,6351.739000C4909.946000,6352.124000,4910.342000,6352.420000,4910.647000,6352.823000C4911.621000,6354.116000,4912.488000,6355.501000,4913.393000,6356.842000C4915.101000,6359.378000,4916.972000,6361.801000,4918.726000,6364.307000C4920.235000,6366.461000,4921.619000,6368.708000,4923.199000,6370.813000C4923.699000,6371.481000,4924.367000,6372.011000,4924.861000,6372.664000C4925.116000,6373.001000,4925.177000,6373.452000,4925.412000,6373.811000C4925.848000,6374.479000,4926.446000,6375.015000,4926.910000,6375.661000C4927.312000,6376.221000,4927.554000,6376.873000,4927.943000,6377.447000C4929.603000,6379.903000,4931.417000,6382.253000,4933.152000,6384.656000C4935.303000,6387.634000,4937.375000,6390.665000,4939.514000,6393.651000C4940.133000,6394.514000,4941.760000,6396,4941.565000,6397.160000C4941.423000,6398.004000,4940.671000,6398.867000,4940.156000,6399.520000C4938.778000,6401.262000,4936.973000,6402.662000,4935.656000,6404.432000C4935.294000,6404.916000,4935.140000,6405.483000,4934.745000,6405.962000C4932.853000,6408.262000,4930.604000,6410.263000,4928.607000,6412.469000C4927.909000,6413.241000,4927.364000,6414.126000,4926.672000,6414.894000C4925.385000,6416.321000,4923.978000,6417.635000,4922.669000,6419.040000C4920.412000,6421.464000,4918.193000,6423.918000,4915.904000,6426.313000C4909.153000,6433.371000,4902.229000,6440.297000,4895.169000,6447.048000C4886.013000,6455.803000,4876.936000,6464.621000,4867.483000,6473.061000C4865.487000,6474.843000,4863.380000,6476.502000,4861.359000,6478.257000C4858.694000,6480.572000,4856.099000,6482.970000,4853.385000,6485.228000C4852.404000,6486.044000,4851.299000,6486.682000,4850.323000,6487.506000C4849.339000,6488.339000,4848.493000,6489.317000,4847.516000,6490.149000C4847.051000,6490.546000,4846.462000,6490.649000,4845.985000,6491.045000C4843.528000,6493.092000,4841.197000,6495.321000,4838.713000,6497.326000C4837.821000,6498.046000,4836.798000,6498.558000,4835.906000,6499.278000C4834.276000,6500.593000,4832.801000,6502.092000,4831.122000,6503.350000C4830.695000,6503.669000,4830.131000,6503.763000,4829.732000,6504.059000C4829.357000,6504.339000,4829.085000,6504.821000,4828.697000,6505.131000C4827.655000,6505.965000,4826.523000,6506.677000,4825.508000,6507.548000C4824.826000,6508.131000,4824.357000,6508.894000,4823.467000,6509.177000C4821.397000,6509.835000,4819.975000,6508.522000,4818.427000,6507.438000C4817.958000,6507.110000,4817.413000,6507.005000,4816.960000,6506.648000C4816.373000,6506.186000,4815.938000,6505.521000,4815.301000,6505.125000C4814.887000,6504.869000,4814.350000,6504.900000,4813.972000,6504.607000C4813.049000,6503.896000,4812.216000,6503.031000,4811.282000,6502.312000C4810.291000,6501.548000,4809.287000,6500.801000,4808.348000,6499.974000C4807.946000,6499.621000,4807.628000,6499.134000,4807.199000,6498.821000C4806.778000,6498.514000,4806.234000,6498.461000,4805.796000,6498.148000C4804.572000,6497.275000,4803.496000,6496.198000,4802.287000,6495.295000C4801.226000,6494.502000,4800.082000,6493.828000,4799.034000,6493.012000C4798.071000,6492.262000,4797.210000,6491.396000,4796.228000,6490.671000C4795.510000,6490.142000,4794.696000,6489.759000,4793.995000,6489.211000C4793.245000,6488.623000,4792.821000,6487.774000,4792.081000,6487.189000C4791.272000,6486.549000,4790.287000,6486.192000,4789.465000,6485.560000C4788.387000,6484.733000,4787.449000,6483.729000,4786.403000,6482.858000C4785.227000,6481.880000,4783.951000,6481.031000,4782.767000,6480.062000C4781.736000,6479.217000,4780.820000,6478.250000,4779.832000,6477.357000C4778.765000,6476.391000,4777.559000,6475.629000,4776.452000,6474.715000C4774.112000,6472.782000,4771.880000,6470.720000,4769.562000,6468.761000C4768.228000,6467.635000,4766.788000,6466.615000,4765.480000,6465.463000C4764.878000,6464.932000,4764.683000,6464.183000,4764.076000,6463.642000C4763.198000,6462.858000,4762.095000,6462.382000,4761.272000,6461.526000C4760.936000,6461.176000,4760.891000,6460.569000,4760.552000,6460.286000C4760.311000,6460.082000,4759.944000,6459.996000,4759.674000,6459.822000C4759.018000,6459.400000,4758.414000,6458.891000,4757.824000,6458.382000C4754.405000,6455.423000,4751.244000,6452.173000,4747.937000,6449.092000C4743.922000,6445.353000,4739.871000,6441.625000,4735.943000,6437.794000C4732.196000,6434.139000,4728.647000,6430.284000,4725.032000,6426.504000C4718.795000,6419.981000,4712.615000,6413.456000,4706.610000,6406.729000C4705.921000,6405.956000,4705.409000,6405.074000,4704.730000,6404.304000C4703.802000,6403.249000,4702.705000,6402.348000,4701.762000,6401.306000C4701.293000,6400.787000,4700.999000,6400.181000,4700.563000,6399.647000C4699.905000,6398.841000,4699.137000,6398.133000,4698.452000,6397.351000C4697.992000,6396.824000,4697.648000,6396.222000,4697.194000,6395.692000C4696.390000,6394.754000,4695.496000,6393.895000,4694.697000,6392.949000C4693.643000,6391.701000,4692.698000,6390.369000,4691.645000,6389.121000C4691.069000,6388.439000,4690.392000,6387.843000,4689.840000,6387.144000C4689.327000,6386.494000,4689.088000,6385.704000,4688.567000,6385.038000C4687.563000,6383.756000,4686.334000,6382.665000,4685.383000,6381.338000C4685.008000,6380.814000,4684.856000,6380.186000,4684.462000,6379.680000C4683.794000,6378.824000,4682.956000,6378.102000,4682.269000,6377.256000C4680.749000,6375.382000,4679.186000,6373.455000,4677.757000,6371.515000C4677.460000,6371.110000,4677.296000,6370.636000,4676.997000,6370.239000C4675.956000,6368.855000,4674.708000,6367.624000,4673.675000,6366.220000C4673.256000,6365.651000,4672.998000,6365.008000,4672.611000,6364.433000C4672.152000,6363.753000,4671.524000,6363.195000,4671.049000,6362.520000C4670.129000,6361.210000,4669.358000,6359.806000,4668.425000,6358.501000C4665.042000,6353.770000,4661.888000,6348.932000,4658.545000,6344.148000C4657.996000,6343.361000,4657.659000,6342.355000,4657.105000,6341.611000C4656.956000,6341.409000,4656.664000,6341.445000,4656.523000,6341.250000C4656.304000,6340.945000,4656.239000,6340.414000,4656.059000,6340.065000C4655.606000,6339.186000,4655.070000,6338.348000,4654.541000,6337.513000C4650.933000,6331.824000,4647.584000,6326.020000,4644.382000,6320.099000C4642.717000,6317.019000,4640.952000,6313.975000,4639.377000,6310.848000C4638.330000,6308.768000,4637.457000,6306.607000,4636.412000,6304.532000C4635.710000,6303.139000,4634.788000,6301.870000,4634.117000,6300.450000C4633.460000,6299.059000,4633.042000,6297.581000,4632.417000,6296.176000C4631.877000,6294.960000,4631.093000,6293.863000,4630.550000,6292.667000C4630.006000,6291.469000,4629.677000,6290.185000,4629.181000,6288.967000C4628.502000,6287.306000,4627.639000,6285.722000,4626.961000,6284.056000C4626.287000,6282.400000,4625.808000,6280.684000,4625.173000,6279.016000C4624.583000,6277.464000,4623.835000,6275.975000,4623.250000,6274.423000C4623.005000,6273.774000,4622.942000,6273.088000,4622.718000,6272.445000C4622.535000,6271.917000,4622.186000,6271.440000,4621.976000,6270.914000C4621.583000,6269.932000,4621.336000,6268.904000,4620.962000,6267.916000C4620.665000,6267.125000,4620.096000,6266.398000,4619.845000,6265.620000C4619.619000,6264.921000,4619.689000,6264.164000,4619.476000,6263.451000C4618.862000,6261.391000,4618.043000,6259.446000,4617.572000,6257.327000C4617.329000,6256.231000,4617.292000,6255.009000,4616.984000,6253.945000C4616.831000,6253.414000,4616.336000,6253.092000,4616.169000,6252.542000C4615.822000,6251.396000,4615.825000,6250.179000,4615.476000,6249.033000C4615.351000,6248.625000,4615.025000,6248.354000,4614.889000,6247.949000C4614.540000,6246.920000,4614.498000,6245.810000,4614.235000,6244.759000C4614.092000,6244.191000,4613.715000,6243.722000,4613.591000,6243.164000C4613.390000,6242.259000,4613.522000,6241.325000,4613.292000,6240.422000C4613.175000,6239.962000,4612.807000,6239.662000,4612.681000,6239.210000C4612.411000,6238.235000,4612.448000,6237.149000,4612.223000,6236.148000C4611.842000,6234.455000,4611.247000,6232.822000,4610.938000,6231.108000C4610.415000,6228.213000,4609.874000,6225.296000,4609.582000,6222.368000C4609.180000,6218.353000,4609.005000,6214.325000,4608.603000,6210.311000C4608.506000,6209.339000,4608.408000,6208.320000,4608.140000,6207.377000C4608.032000,6206.996000,4607.771000,6206.721000,4607.642000,6206.356000C4607.478000,6205.896000,4607.459000,6205.372000,4607.413000,6204.889000C4607.202000,6202.677000,4607.275000,6200.415000,4607.275000,6198.191000C4607.275000,6195.727000,4607.211000,6193.259000,4607.211000,6190.791000C4607.211000,6184.765000,4607.060000,6178.681000,4607.471000,6172.674000C4607.521000,6171.948000,4607.797000,6171.335000,4607.938000,6170.632000C4608.188000,6169.391000,4608.341000,6168.127000,4608.476000,6166.869000C4609.129000,6160.767000,4609.540000,6154.669000,4610.707000,6148.625000C4611.069000,6146.745000,4611.628000,6144.978000,4612.113000,6143.138000C4612.324000,6142.336000,4612.426000,6141.511000,4612.660000,6140.714000C4612.840000,6140.101000,4613.155000,6139.549000,4613.311000,6138.928000C4613.805000,6136.953000,4613.897000,6134.904000,4614.446000,6132.932000C4614.714000,6131.967000,4615.212000,6131.125000,4615.511000,6130.188000C4615.812000,6129.246000,4615.903000,6128.261000,4616.187000,6127.318000C4616.390000,6126.646000,4616.840000,6126.083000,4617.066000,6125.404000C4617.726000,6123.422000,4618.163000,6121.378000,4618.865000,6119.407000C4619.381000,6117.956000,4620.167000,6116.630000,4620.707000,6115.197000C4620.969000,6114.504000,4620.943000,6113.780000,4621.168000,6113.092000C4621.311000,6112.652000,4621.706000,6112.400000,4621.836000,6111.944000C4621.970000,6111.468000,4621.875000,6110.932000,4622.074000,6110.476000C4622.221000,6110.139000,4622.602000,6110.051000,4622.745000,6109.710000C4622.957000,6109.208000,4622.932000,6108.584000,4623.117000,6108.052000C4623.425000,6107.165000,4623.912000,6106.363000,4624.280000,6105.501000C4624.456000,6105.087000,4624.509000,6104.633000,4624.673000,6104.225000C4624.829000,6103.838000,4625.304000,6103.886000,4625.463000,6103.521000C4627.592000,6098.630000,4629.841000,6093.844000,4632.422000,6089.170000C4633.055000,6088.024000,4633.377000,6086.740000,4634.031000,6085.597000C4634.656000,6084.504000,4635.512000,6083.592000,4636.192000,6082.536000C4637.380000,6080.691000,4638.343000,6078.707000,4639.534000,6076.858000C4640.213000,6075.804000,4641.100000,6074.893000,4641.779000,6073.860000C4642.370000,6072.960000,4642.479000,6071.843000,4643.095000,6070.925000C4643.627000,6070.133000,4644.325000,6069.464000,4644.887000,6068.693000C4646.733000,6066.159000,4648.462000,6063.515000,4650.391000,6061.038000C4650.758000,6060.566000,4651.213000,6060.174000,4651.583000,6059.698000C4653.337000,6057.438000,4654.851000,6055.045000,4656.731000,6052.872000C4660.316000,6048.730000,4664.260000,6044.936000,4667.930000,6040.880000C4668.641000,6040.094000,4669.181000,6039.130000,4669.919000,6038.392000C4670.451000,6037.861000,4671.144000,6037.546000,4671.705000,6037.041000C4674.074000,6034.901000,4676.482000,6032.804000,4678.850000,6030.662000C4680.049000,6029.576000,4681.093000,6028.323000,4682.295000,6027.239000C4682.892000,6026.699000,4683.616000,6026.370000,4684.208000,6025.818000C4685.027000,6025.056000,4685.766000,6024.216000,4686.632000,6023.503000C4687.376000,6022.890000,4688.230000,6022.663000,4688.993000,6022.122000C4689.846000,6021.515000,4690.525000,6020.691000,4691.353000,6020.046000C4692.342000,6019.275000,4693.464000,6018.708000,4694.479000,6017.968000C4695.659000,6017.106000,4696.738000,6016.116000,4697.923000,6015.262000C4698.381000,6014.931000,4698.941000,6014.744000,4699.384000,6014.423000C4699.622000,6014.249000,4699.653000,6013.931000,4699.905000,6013.768000C4700.155000,6013.605000,4700.473000,6013.676000,4700.723000,6013.512000C4701.043000,6013.302000,4701.250000,6012.916000,4701.559000,6012.676000C4702.557000,6011.903000,4703.659000,6011.237000,4704.749000,6010.605000C4705.451000,6010.198000,4706.304000,6009.972000,4706.975000,6009.558000C4707.354000,6009.324000,4707.509000,6008.825000,4707.939000,6008.565000C4709.254000,6007.770000,4710.710000,6007.245000,4712.021000,6006.443000C4712.890000,6005.912000,4713.591000,6005.193000,4714.446000,6004.649000C4716.136000,6003.572000,4717.981000,6002.771000,4719.740000,6001.818000C4720.489000,6001.414000,4721.116000,6000.822000,4721.846000,6000.422000C4722.429000,6000.103000,4723.111000,6000.055000,4723.696000,5999.744000C4724.038000,5999.562000,4724.142000,5999.172000,4724.464000,5998.997000C4725.251000,5998.571000,4726.301000,5998.377000,4727.140000,5997.991000C4728.877000,5997.194000,4730.558000,5996.286000,4732.307000,5995.514000C4733.311000,5995.070000,4734.368000,5994.762000,4735.369000,5994.320000C4736.222000,5993.943000,4736.860000,5993.326000,4737.666000,5992.906000C4738.117000,5992.672000,4738.627000,5992.753000,4739.066000,5992.547000C4739.482000,5992.352000,4739.765000,5991.999000,4740.218000,5991.827000C4741.671000,5991.275000,4743.211000,5990.985000,4744.683000,5990.483000C4745.293000,5990.275000,4745.808000,5989.820000,4746.405000,5989.640000C4746.952000,5989.476000,4747.519000,5989.548000,4748.064000,5989.354000C4748.542000,5989.183000,4748.899000,5988.854000,4749.340000,5988.619000C4750.026000,5988.255000,4750.778000,5987.981000,4751.509000,5987.720000C4753.916000,5986.865000,4756.406000,5986.200000,4758.845000,5985.442000C4761.567000,5984.596000,4764.300000,5983.671000,4767.074000,5983.012000C4768.884000,5982.582000,4770.742000,5982.311000,4772.561000,5981.894000C4776.467000,5980.996000,4780.330000,5979.962000,4784.298000,5979.346000C4791.816000,5978.180000,4799.422000,5977.101000,4807.009000,5976.582000C4809.686000,5976.399000,4812.366000,5976.314000,4815.046000,5976.196000C4816.290000,5976.142000,4817.574000,5976.319000,4818.810000,5976.157000" fill="rgb(195,12,21)" fill-opacity="0" stroke="rgb(0,0,0)" stroke-width="5"/></g></g><script><![CDATA[!function(t,n){"object"==typeof exports&&"undefined"!=typeof module?module.exports=n():"function"==typeof define&&define.amd?define(n):(t=t||self).__SVGATOR_PLAYER__=n()}(this,(function(){"use strict";function t(n){return(t="function"==typeof Symbol&&"symbol"==typeof Symbol.iterator?function(t){return typeof t}:function(t){return t&&"function"==typeof Symbol&&t.constructor===Symbol&&t!==Symbol.prototype?"symbol":typeof t})(n)}function n(t,n){if(!(t instanceof n))throw new TypeError("Cannot call a class as a function")}function r(t,n){for(var r=0;r<n.length;r++){var e=n[r];e.enumerable=e.enumerable||!1,e.configurable=!0,"value"in e&&(e.writable=!0),Object.defineProperty(t,e.key,e)}}function e(t,n,e){return n&&r(t.prototype,n),e&&r(t,e),t}var i=1e-5,u=Math.abs;function o(t){return t}function a(t,n,r){var e=1-r;return 3*r*e*(t*e+n*r)+r*r*r}function l(){var t=arguments.length>0&&void 0!==arguments[0]?arguments[0]:0,n=arguments.length>1&&void 0!==arguments[1]?arguments[1]:0,r=arguments.length>2&&void 0!==arguments[2]?arguments[2]:1,e=arguments.length>3&&void 0!==arguments[3]?arguments[3]:1;return t<0||t>1||r<0||r>1?null:u(t-n)<=i&&u(r-e)<=i?o:function(o){if(o<=0)return t>0?o*n/t:0===n&&r>0?o*e/r:0;if(o>=1)return r<1?1+(o-1)*(e-1)/(r-1):1===r&&t<1?1+(o-1)*(n-1)/(t-1):1;for(var l,f=0,s=1;f<s;){var c=a(t,r,l=(f+s)/2);if(u(o-c)<i)break;c<o?f=l:s=l}return a(n,e,l)}}function f(){return 1}function s(t){return 1===t?1:0}function c(){var t=arguments.length>0&&void 0!==arguments[0]?arguments[0]:1,n=arguments.length>1&&void 0!==arguments[1]?arguments[1]:0;if(1===t){if(0===n)return s;if(1===n)return f}var r=1/t;return function(t){return t>=1?1:(t+=n*r)-t%r}}function v(t){var n=arguments.length>1&&void 0!==arguments[1]?arguments[1]:2;if(Number.isInteger(t))return t;var r=Math.pow(10,n);return Math.round(t*r)/r}var h=Math.PI/180;function y(t,n,r){return t>=.5?r:n}function d(t,n,r){return 0===t||n===r?n:t*(r-n)+n}function g(t,n,r){var e=d(t,n,r);return e<=0?0:e}function m(t,n,r){return 0===t?n:1===t?r:{x:d(t,n.x,r.x),y:d(t,n.y,r.y)}}function p(t,n,r){return 0===t?n:1===t?r:{x:g(t,n.x,r.x),y:g(t,n.y,r.y)}}function b(t,n,r){var e=function(t,n,r){return Math.round(d(t,n,r))}(t,n,r);return e<=0?0:e>=255?255:e}function w(t,n,r){return 0===t?n:1===t?r:{r:b(t,n.r,r.r),g:b(t,n.g,r.g),b:b(t,n.b,r.b),a:d(t,null==n.a?1:n.a,null==r.a?1:r.a)}}function A(t,n,r){if(0===t)return n;if(1===t)return r;var e=n.length;if(e!==r.length)return y(t,n,r);for(var i=[],u=0;u<e;u++)i.push(w(t,n[u],r[u]));return i}function x(t,n,r){var e=n.length;if(e!==r.length)return y(t,n,r);for(var i=new Array(e),u=0;u<e;u++)i[u]=d(t,n[u],r[u]);return i}function k(t,n){for(var r=[],e=0;e<t;e++)r.push(n);return r}function S(t,n){if(--n<=0)return t;var r=(t=Object.assign([],t)).length;do{for(var e=0;e<r;e++)t.push(t[e])}while(--n>0);return t}var _=6,M=/\.0+$/g;function I(t){return Number.isInteger(t)?t+"":t.toFixed(_).replace(M,"")}function E(t){var n=arguments.length>1&&void 0!==arguments[1]?arguments[1]:" ";return t&&t.length?t.map(I).join(n):""}function F(t){return I(t.x)+","+I(t.y)}function B(t){return t?null==t.a||t.a>=1?"rgb("+t.r+","+t.g+","+t.b+")":"rgba("+t.r+","+t.g+","+t.b+","+t.a+")":"transparent"}var j={f:null,i:p,u:function(t,n){return function(r){var e=n(r);t.setAttribute("rx",I(e.x)),t.setAttribute("ry",I(e.y))}}},q={f:null,i:function(t,n,r){return 0===t?n:1===t?r:{width:g(t,n.width,r.width),height:g(t,n.height,r.height)}},u:function(t,n){return function(r){var e=n(r);t.setAttribute("width",I(e.width)),t.setAttribute("height",I(e.height))}}},P=Math.sin,O=Math.cos,z=Math.acos,L=Math.asin,C=Math.tan,R=Math.atan2,T=Math.PI/180,V=180/Math.PI,D=Math.sqrt,N=function(){function t(){var r=arguments.length>0&&void 0!==arguments[0]?arguments[0]:1,e=arguments.length>1&&void 0!==arguments[1]?arguments[1]:0,i=arguments.length>2&&void 0!==arguments[2]?arguments[2]:0,u=arguments.length>3&&void 0!==arguments[3]?arguments[3]:1,o=arguments.length>4&&void 0!==arguments[4]?arguments[4]:0,a=arguments.length>5&&void 0!==arguments[5]?arguments[5]:0;n(this,t),this.m=[r,e,i,u,o,a],this.i=null,this.w=null,this.s=null}return e(t,[{key:"point",value:function(t,n){var r=this.m;return{x:r[0]*t+r[2]*n+r[4],y:r[1]*t+r[3]*n+r[5]}}},{key:"translateSelf",value:function(){var t=arguments.length>0&&void 0!==arguments[0]?arguments[0]:0,n=arguments.length>1&&void 0!==arguments[1]?arguments[1]:0;if(!t&&!n)return this;var r=this.m;return r[4]+=r[0]*t+r[2]*n,r[5]+=r[1]*t+r[3]*n,this.w=this.s=this.i=null,this}},{key:"rotateSelf",value:function(){var t=arguments.length>0&&void 0!==arguments[0]?arguments[0]:0;if(t%=360){var n=P(t*=T),r=O(t),e=this.m,i=e[0],u=e[1];e[0]=i*r+e[2]*n,e[1]=u*r+e[3]*n,e[2]=e[2]*r-i*n,e[3]=e[3]*r-u*n,this.w=this.s=this.i=null}return this}},{key:"scaleSelf",value:function(){var t=arguments.length>0&&void 0!==arguments[0]?arguments[0]:1,n=arguments.length>1&&void 0!==arguments[1]?arguments[1]:1;if(1!==t||1!==n){var r=this.m;r[0]*=t,r[1]*=t,r[2]*=n,r[3]*=n,this.w=this.s=this.i=null}return this}},{key:"skewSelf",value:function(t,n){if(n%=360,(t%=360)||n){var r=this.m,e=r[0],i=r[1],u=r[2],o=r[3];t&&(t=C(t*T),r[2]+=e*t,r[3]+=i*t),n&&(n=C(n*T),r[0]+=u*n,r[1]+=o*n),this.w=this.s=this.i=null}return this}},{key:"resetSelf",value:function(){var t=arguments.length>0&&void 0!==arguments[0]?arguments[0]:1,n=arguments.length>1&&void 0!==arguments[1]?arguments[1]:0,r=arguments.length>2&&void 0!==arguments[2]?arguments[2]:0,e=arguments.length>3&&void 0!==arguments[3]?arguments[3]:1,i=arguments.length>4&&void 0!==arguments[4]?arguments[4]:0,u=arguments.length>5&&void 0!==arguments[5]?arguments[5]:0,o=this.m;return o[0]=t,o[1]=n,o[2]=r,o[3]=e,o[4]=i,o[5]=u,this.w=this.s=this.i=null,this}},{key:"recomposeSelf",value:function(){var t=arguments.length>0&&void 0!==arguments[0]?arguments[0]:null,n=arguments.length>1&&void 0!==arguments[1]?arguments[1]:null,r=arguments.length>2&&void 0!==arguments[2]?arguments[2]:null,e=arguments.length>3&&void 0!==arguments[3]?arguments[3]:null,i=arguments.length>4&&void 0!==arguments[4]?arguments[4]:null;return this.isIdentity||this.resetSelf(),t&&(t.x||t.y)&&this.translateSelf(t.x,t.y),n&&this.rotateSelf(n),r&&(r.x&&this.skewSelf(r.x,0),r.y&&this.skewSelf(0,r.y)),!e||1===e.x&&1===e.y||this.scaleSelf(e.x,e.y),i&&(i.x||i.y)&&this.translateSelf(i.x,i.y),this}},{key:"decompose",value:function(){var t=arguments.length>0&&void 0!==arguments[0]?arguments[0]:0,n=arguments.length>1&&void 0!==arguments[1]?arguments[1]:0,r=this.m,e=r[0]*r[0]+r[1]*r[1],i=[[r[0],r[1]],[r[2],r[3]]],u=D(e);if(0===u)return{origin:{x:r[4],y:r[5]},translate:{x:t,y:n},scale:{x:0,y:0},skew:{x:0,y:0},rotate:0};i[0][0]/=u,i[0][1]/=u;var o=r[0]*r[3]-r[1]*r[2]<0;o&&(u=-u);var a=i[0][0]*i[1][0]+i[0][1]*i[1][1];i[1][0]-=i[0][0]*a,i[1][1]-=i[0][1]*a;var l=D(i[1][0]*i[1][0]+i[1][1]*i[1][1]);if(0===l)return{origin:{x:r[4],y:r[5]},translate:{x:t,y:n},scale:{x:u,y:0},skew:{x:0,y:0},rotate:0};i[1][0]/=l,i[1][1]/=l,a/=l;var f=0;return i[1][1]<0?(f=z(i[1][1])*V,i[0][1]<0&&(f=360-f)):f=L(i[0][1])*V,o&&(f=-f),a=R(a,D(i[0][0]*i[0][0]+i[0][1]*i[0][1]))*V,{origin:{x:r[4],y:r[5]},translate:{x:t,y:n},scale:{x:u,y:l},skew:{x:a,y:0},rotate:f}}},{key:"toString",value:function(){return null===this.s&&(this.s="matrix("+this.m.map($).join(" ")+")"),this.s}},{key:"determinant",get:function(){var t=this.m;return t[0]*t[3]-t[1]*t[2]}},{key:"isIdentity",get:function(){if(null===this.i){var t=this.m;this.i=1===t[0]&&0===t[1]&&0===t[2]&&1===t[3]&&0===t[4]&&0===t[5]}return this.i}}]),t}(),G=/\.0+$/;function $(t){return Number.isInteger(t)?t:t.toFixed(14).replace(G,"")}Object.freeze({M:2,L:2,Z:0,H:1,V:1,C:6,Q:4,T:2,S:4,A:7});function H(t,n,r){return t+(n-t)*r}function Q(t,n,r){var e=arguments.length>3&&void 0!==arguments[3]&&arguments[3],i={x:H(t.x,n.x,r),y:H(t.y,n.y,r)};return e&&(i.a=function(t,n){return Math.atan2(n.y-t.y,n.x-t.x)}(t,n)),i}function U(t,n,r,e){var i=1-e;return i*i*t+2*i*e*n+e*e*r}function Y(t,n,r,e){return 2*(1-e)*(n-t)+2*e*(r-n)}function Z(t,n,r,e){var i=arguments.length>4&&void 0!==arguments[4]&&arguments[4],u={x:U(t.x,n.x,r.x,e),y:U(t.y,n.y,r.y,e)};return i&&(u.a=function(t,n,r,e){return Math.atan2(Y(t.y,n.y,r.y,e),Y(t.x,n.x,r.x,e))}(t,n,r,e)),u}function J(t,n,r,e,i){var u=i*i;return i*u*(e-t+3*(n-r))+3*u*(t+r-2*n)+3*i*(n-t)+t}function K(t,n,r,e,i){var u=1-i;return 3*(u*u*(n-t)+2*u*i*(r-n)+i*i*(e-r))}function W(t,n,r,e,i){var u=arguments.length>5&&void 0!==arguments[5]&&arguments[5],o={x:J(t.x,n.x,r.x,e.x,i),y:J(t.y,n.y,r.y,e.y,i)};return u&&(o.a=function(t,n,r,e,i){return Math.atan2(K(t.y,n.y,r.y,e.y,i),K(t.x,n.x,r.x,e.x,i))}(t,n,r,e,i)),o}function X(t,n,r){var e,i=arguments.length>3&&void 0!==arguments[3]&&arguments[3];if(nt(n)){if(null!=(e=r).start&&!nt(e))return Z(n,r.start,r,t,i)}else if(nt(r)){if(n.end)return Z(n,n.end,r,t,i)}else{if(n.end)return r.start?W(n,n.end,r.start,r,t,i):Z(n,n.end,r,t,i);if(r.start)return Z(n,r.start,r,t,i)}return Q(n,r,t,i)}function tt(t,n,r){var e=X(t,n,r,!0);return e.a=function(t){return arguments.length>1&&void 0!==arguments[1]&&arguments[1]?t+Math.PI:t}(e.a)/h,e}function nt(t){return!t.type||"corner"===t.type}var rt=new N;var et={f:function(t){return t?t.join(" "):""},i:function(n,r,e){if(0===n)return r;if(1===n)return e;var i=r.length;if(i!==e.length)return y(n,r,e);for(var u,o=new Array(i),a=0;a<i;a++){if((u=t(r[a]))!==t(e[a]))return y(n,r,e);if("number"===u)o[a]=d(n,r[a],e[a]);else{if(r[a]!==e[a])return y(n,r,e);o[a]=r[a]}}return o}},it={f:null,i:x,u:function(t,n){return function(r){var e=n(r);t.setAttribute("x1",I(e[0])),t.setAttribute("y1",I(e[1])),t.setAttribute("x2",I(e[2])),t.setAttribute("y2",I(e[3]))}}},ut={f:I,i:d},ot={f:I,i:function(t,n,r){var e=d(t,n,r);return e<=0?0:e>=1?1:e}},at={f:E,i:function(t,n,r){var e,i,u,o=n.length,a=r.length;if(o!==a)if(0===o)n=k(o=a,0);else if(0===a)a=o,r=k(o,0);else{var l=(u=(e=o)*(i=a)/function(t,n){for(var r;n;)r=n,n=t%n,t=r;return t||1}(e,i))<0?-u:u;n=S(n,Math.floor(l/o)),r=S(r,Math.floor(l/a)),o=a=l}for(var f=[],s=0;s<o;s++)f.push(v(g(t,n[s],r[s]),6));return f}};function lt(t,n,r,e,i,u,o,a){return n=function(t,n,r){for(var e,i,u,o=t.length-1,a={},l=0;l<=o;l++)(e=t[l]).e&&(e.e=n(e.e)),e.v&&"g"===(i=e.v).t&&i.r&&(u=r.getElementById(i.r))&&(a[i.r]=u.querySelectorAll("stop"));return a}(t,e,a),function(e){var i,u=r(e,t,ft);return u?"c"===u.t?B(u.v):"g"===u.t?(n[u.r]&&function(t,n){for(var r=0,e=t.length;r<e;r++)t[r].setAttribute("stop-color",B(n[r]))}(n[u.r],u.v),(i=u.r)?"url(#"+i+")":"none"):"none":"none"}}function ft(t,n,r){if(0===t)return n;if(1===t)return r;if(n&&r){var e=n.t;if(e===r.t)switch(n.t){case"c":return{t:e,v:w(t,n.v,r.v)};case"g":if(n.r===r.r)return{t:e,v:A(t,n.v,r.v),r:n.r}}}return y(t,n,r)}var st={blur:p,brightness:g,contrast:g,"drop-shadow":function(t,n,r){return 0===t?n:1===t?r:{blur:p(t,n.blur,r.blur),offset:m(t,n.offset,r.offset),color:w(t,n.color,r.color)}},grayscale:g,"hue-rotate":d,invert:g,opacity:g,saturate:g,sepia:g};function ct(t,n,r){if(0===t)return n;if(1===t)return r;var e=n.length;if(e!==r.length)return y(t,n,r);for(var i,u=[],o=0;o<e;o++){if(n[o].type!==r[o].type)return n;if(!(i=st[n[o].type]))return y(t,n,r);u.push({type:n.type,value:i(t,n[o].value,r[o].value)})}return u}var vt={blur:function(t){return t?function(n){t.setAttribute("stdDeviation",F(n))}:null},brightness:function(t,n,r){return(t=yt(r,n))?function(n){n=I(n),t.map((function(t){return t.setAttribute("slope",n)}))}:null},contrast:function(t,n,r){return(t=yt(r,n))?function(n){var r=I((1-n)/2);n=I(n),t.map((function(t){t.setAttribute("slope",n),t.setAttribute("intercept",r)}))}:null},"drop-shadow":function(t,n,r){var e=r.getElementById(n+"-blur");if(!e)return null;var i=r.getElementById(n+"-offset");if(!i)return null;var u=r.getElementById(n+"-flood");return u?function(t){e.setAttribute("stdDeviation",F(t.blur)),i.setAttribute("dx",I(t.offset.x)),i.setAttribute("dy",I(t.offset.y)),u.setAttribute("flood-color",B(t.color))}:null},grayscale:function(t){return t?function(n){t.setAttribute("values",E(function(t){return[.2126+.7874*(t=1-t),.7152-.7152*t,.0722-.0722*t,0,0,.2126-.2126*t,.7152+.2848*t,.0722-.0722*t,0,0,.2126-.2126*t,.7152-.7152*t,.0722+.9278*t,0,0,0,0,0,1,0]}(n)))}:null},"hue-rotate":function(t){return t?function(n){return t.setAttribute("values",I(n))}:null},invert:function(t,n,r){return(t=yt(r,n))?function(n){n=I(n)+" "+I(1-n),t.map((function(t){return t.setAttribute("tableValues",n)}))}:null},opacity:function(t,n,r){return(t=r.getElementById(n+"-A"))?function(n){return t.setAttribute("tableValues","0 "+I(n))}:null},saturate:function(t){return t?function(n){return t.setAttribute("values",I(n))}:null},sepia:function(t){return t?function(n){return t.setAttribute("values",E(function(t){return[.393+.607*(t=1-t),.769-.769*t,.189-.189*t,0,0,.349-.349*t,.686+.314*t,.168-.168*t,0,0,.272-.272*t,.534-.534*t,.131+.869*t,0,0,0,0,0,1,0]}(n)))}:null}};var ht=["R","G","B"];function yt(t,n){var r=ht.map((function(r){return t.getElementById(n+"-"+r)||null}));return-1!==r.indexOf(null)?null:r}var dt={fill:lt,"fill-opacity":ot,stroke:lt,"stroke-opacity":ot,"stroke-width":ut,"stroke-dashoffset":{f:I,i:d},"stroke-dasharray":at,opacity:ot,transform:function(n,r,e,i){if(!(n=function(n,r){if(!n||"object"!==t(n))return null;var e=!1;for(var i in n)n.hasOwnProperty(i)&&(n[i]&&n[i].length?(n[i].forEach((function(t){t.e&&(t.e=r(t.e))})),e=!0):delete n[i]);return e?n:null}(n,i)))return null;var u=function(t,i,u){var o=arguments.length>3&&void 0!==arguments[3]?arguments[3]:null;return n[t]?e(i,n[t],u):r&&r[t]?r[t]:o};return r&&r.a&&n.o?function(t){var r=e(t,n.o,tt);return rt.recomposeSelf(r,u("r",t,d,0)+r.a,u("k",t,m),u("s",t,m),u("t",t,m)).toString()}:function(t){return rt.recomposeSelf(u("o",t,X,null),u("r",t,d,0),u("k",t,m),u("s",t,m),u("t",t,m)).toString()}},"#filter":function(t,n,r,e,i,u,o,a){if(!n.items||!t||!t.length)return null;var l=function(t,n){var r=(t=t.map((function(t){return t&&vt[t[0]]?(n.getElementById(t[1]),vt[t[0]](n.getElementById(t[1]),t[1],n)):null}))).length;return function(n){for(var e=0;e<r;e++)t[e]&&t[e](n[e].value)}}(n.items,a);return l?(t=function(t,n){return t.map((function(t){return t.e=n(t.e),t}))}(t,e),function(n){l(r(n,t,ct))}):null},"#line":it,points:{f:E,i:x},d:et,r:ut,"#size":q,"#radius":j,_:function(t,n){if(Array.isArray(t))for(var r=0;r<t.length;r++)this[t[r]]=n;else this[t]=n}},gt=function(){function t(r){n(this,t),this.list=r,this.length=r.length}return e(t,[{key:"setAttribute",value:function(t,n){for(var r=this.list,e=0;e<this.length;e++)r[e].setAttribute(t,n)}},{key:"removeAttribute",value:function(t){for(var n=this.list,r=0;r<this.length;r++)n[r].removeAttribute(t)}},{key:"style",value:function(t,n){for(var r=this.list,e=0;e<this.length;e++)r[e].style[t]=n}}]),t}(),mt=/-./g,pt=function(t,n){return n.toUpperCase()};function bt(t){return"function"==typeof t?t:y}function wt(t){return t?"function"==typeof t?t:Array.isArray(t)?function(t){var n=arguments.length>1&&void 0!==arguments[1]?arguments[1]:o;if(!Array.isArray(t))return n;switch(t.length){case 1:return c(t[0])||n;case 2:return c(t[0],t[1])||n;case 4:return l(t[0],t[1],t[2],t[3])||n}return n}(t,null):function(t,n){var r=arguments.length>2&&void 0!==arguments[2]?arguments[2]:o;switch(t){case"linear":return o;case"steps":return c(n.steps||1,n.jump||0)||r;case"bezier":case"cubic-bezier":return l(n.x1||0,n.y1||0,n.x2||0,n.y2||0)||r}return r}(t.type,t.value,null):null}function At(t,n,r){var e=arguments.length>3&&void 0!==arguments[3]&&arguments[3],i=n.length-1;if(t<=n[0].t)return e?[0,0,n[0].v]:n[0].v;if(t>=n[i].t)return e?[i,1,n[i].v]:n[i].v;var u,o=n[0],a=null;for(u=1;u<=i;u++){if(!(t>n[u].t)){a=n[u];break}o=n[u]}return null==a?e?[i,1,n[i].v]:n[i].v:o.t===a.t?e?[u,1,a.v]:a.v:(t=(t-o.t)/(a.t-o.t),o.e&&(t=o.e(t)),e?[u,t,r(t,o.v,a.v)]:r(t,o.v,a.v))}function xt(t,n){var r=arguments.length>2&&void 0!==arguments[2]?arguments[2]:null;return t&&t.length?"function"!=typeof n?null:("function"!=typeof r&&(r=null),function(e){var i=At(e,t,n);return null!=i&&r&&(i=r(i)),i}):null}function kt(t,n){return t.t-n.t}function St(n,r,e,i,u){var o,a="@"===e[0],l="#"===e[0],f=dt[e],s=y;switch(a?(o=e.substr(1),e=o.replace(mt,pt)):l&&(e=e.substr(1)),t(f)){case"function":if(s=f(i,u,At,wt,e,a,r,n),l)return s;break;case"string":s=xt(i,bt(f));break;case"object":if((s=xt(i,bt(f.i),f.f))&&"function"==typeof f.u)return f.u(r,s,e,a,n)}return s?function(t,n,r){if(arguments.length>3&&void 0!==arguments[3]&&arguments[3])return t instanceof gt?function(e){return t.style(n,r(e))}:function(e){return t.style[n]=r(e)};if(Array.isArray(n)){var e=n.length;return function(i){var u=r(i);if(null==u)for(var o=0;o<e;o++)t[o].removeAttribute(n);else for(var a=0;a<e;a++)t[a].setAttribute(n,u)}}return function(e){var i=r(e);null==i?t.removeAttribute(n):t.setAttribute(n,i)}}(r,e,s,a):null}function _t(n,r,e,i){if(!i||"object"!==t(i))return null;var u=null,o=null;return Array.isArray(i)?o=function(t){if(!t||!t.length)return null;for(var n=0;n<t.length;n++)t[n].e&&(t[n].e=wt(t[n].e));return t.sort(kt)}(i):(o=i.keys,u=i.data||null),o?St(n,r,e,o,u):null}function Mt(t,n,r){if(!r)return null;var e=[];for(var i in r)if(r.hasOwnProperty(i)){var u=_t(t,n,i,r[i]);u&&e.push(u)}return e.length?e:null}function It(t,n){if(!n.duration||n.duration<0)return null;var r=function(t,n){if(!n)return null;var r=[];if(Array.isArray(n))for(var e=n.length,i=0;i<e;i++){var u=n[i];if(2===u.length){var o=null;if("string"==typeof u[0])o=t.getElementById(u[0]);else if(Array.isArray(u[0])){o=[];for(var a=0;a<u[0].length;a++)if("string"==typeof u[0][a]){var l=t.getElementById(u[0][a]);l&&o.push(l)}o=o.length?1===o.length?o[0]:new gt(o):null}if(o){var f=Mt(t,o,u[1]);f&&(r=r.concat(f))}}}else for(var s in n)if(n.hasOwnProperty(s)){var c=t.getElementById(s);if(c){var v=Mt(t,c,n[s]);v&&(r=r.concat(v))}}return r.length?r:null}(t,n.elements);return r?function(t,n){var r=arguments.length>2&&void 0!==arguments[2]?arguments[2]:1/0,e=arguments.length>3&&void 0!==arguments[3]?arguments[3]:1,i=arguments.length>4&&void 0!==arguments[4]&&arguments[4],u=arguments.length>5&&void 0!==arguments[5]?arguments[5]:1,o=t.length,a=e>0?n:0;i&&r%2==0&&(a=n-a);var l=null;return function(f,s){var c=f%n,v=1+(f-c)/n;s*=e,i&&v%2==0&&(s=-s);var h=!1;if(v>r)c=a,h=!0,-1===u&&(c=e>0?0:n);else if(s<0&&(c=n-c),c===l)return!1;l=c;for(var y=0;y<o;y++)t[y](c);return h}}(r,n.duration,n.iterations||1/0,n.direction||1,!!n.alternate,n.fill||1):null}var Et=function(){function t(r){var e=arguments.length>1&&void 0!==arguments[1]?arguments[1]:{};n(this,t),this._id=0,this._running=!1,this._animations=r,this.direction=e.direction||1,this.speed=e.speed||1,this.fps=e.fps||100,this.offset=e.offset||0}return e(t,[{key:"_start",value:function(){var t=this,n=arguments.length>0&&void 0!==arguments[0]?arguments[0]:0,r=-1/0,e=null,i={},u=function u(o){t._running=!0,null==e&&(e=o);var a=Math.round((o-e+n)*t.speed),l=t.fps?1e3/t.fps:0;if(a>r+l){t.offset=a,r=a;for(var f=t._animations,s=f.length,c=0,v=0;v<s;v++)i[v]?c++:(i[v]=f[v](a,t.direction),i[v]&&c++);if(c===s)return void t._stop()}t._id=window.requestAnimationFrame(u)};this._id=window.requestAnimationFrame(u)}},{key:"_stop",value:function(){this._id&&window.cancelAnimationFrame(this._id),this._running=!1}},{key:"play",value:function(){this._running||this._start(this.offset)}},{key:"stop",value:function(){this._stop(),this.offset=0;var t=this.direction,n=this._animations;requestAnimationFrame((function(){for(var r=0;r<n.length;r++)n[r](0,t)}))}},{key:"restart",value:function(){this._stop(),this.offset=0,this._start()}},{key:"pause",value:function(){this._stop()}},{key:"reverse",value:function(){this.direction=-this.direction}}],[{key:"build",value:function(n){if(!(n=function(t){if(!t||!t.root||!Array.isArray(t.animations))return null;var n=window.document.getElementById(t.root);if(!n)return null;var r=t.animations.map((function(t){return It(n,t)})).filter((function(t){return!!t}));return r.length?{element:n,animations:r,options:t.options||void 0}:null}(n)))return null;var r=n.element,e=n.options||{},i=new t(n.animations,n.options);return function(t,n,r){var e=arguments.length>3&&void 0!==arguments[3]?arguments[3]:null;if("click"===r){return void n.addEventListener("click",(function r(){n.removeEventListener("click",r),t.play()}))}if("hover"===r)return n.addEventListener("mouseenter",(function(){return t.play()})),void n.addEventListener("mouseleave","freeze"===e?function(){return t.pause()}:function(){return t.stop()});t.play()}(i,r,e.start,e.hover),i}}]),t}();return function(){for(var t=0,n=["ms","moz","webkit","o"],r=0;r<n.length&&!window.requestAnimationFrame;++r)window.requestAnimationFrame=window[n[r]+"RequestAnimationFrame"],window.cancelAnimationFrame=window[n[r]+"CancelAnimationFrame"]||window[n[r]+"CancelRequestAnimationFrame"];window.requestAnimationFrame||(window.requestAnimationFrame=function(n){var r=Date.now(),e=Math.max(0,16-(r-t)),i=window.setTimeout((function(){n(r+e)}),e);return t=r+e,i},window.cancelAnimationFrame=window.clearTimeout)}(),Et}));
__SVGATOR_PLAYER__.build({"root":"ewrcpck2x361","animations":[{"duration":4000,"direction":1,"iterations":1,"fill":1,"alternate":false,"elements":{"ewrcpck2x363":{"transform":{"data":{"o":{"x":6161.14127313276,"y":5390.939466057629,"type":"corner"},"t":{"x":-6173.144287166365,"y":-5323.867919917574}},"keys":{"s":[{"t":0,"v":{"x":0.01,"y":0.01}},{"t":500,"v":{"x":0.9,"y":1.02}}]}}},"ewrcpck2x369":{"fill-opacity":[{"t":1500,"v":0},{"t":3000,"v":1}]}}}],"options":{"start":"load","hover":"freeze"}})]]></script></svg>